# xmcd
# Track frame offsets:
# 150
# 17512
# 32696
# 51726
# 68244
# 82158
# 98257
# 112767
# 126543
# 140098
# 154483
# 168169
# 183457
# 198250
# 216064
# 230985
# 246615
# 263057
#
# Disc length: 3692 seconds
# Revision: 0
# Processed by: cddbd v1.5.2PL0 Copyright (c) Steve Scherf et al.
# Submitted via: VisiTrax 2.11.3.279 - For more info visit www.synapsa.com
#
DISCID=0b0e6a12
DTITLE=Various Artist - Country Radio - 2014-11
DYEAR=2014
DGENRE=Country
TTITLE0=Tim McGraw - Shotgun Rider
TTITLE1=Jackie Lee - She Does
TTITLE2=Eric Church - Talladega
TTITLE3=Lee Ann Womack - Way I'm Living, The
TTITLE4=Brad Puckett - Kiss Me in the Rain
TTITLE5=Dierks Bentley - Say You Do
TTITLE6=Sara Evans - Put My Heart Down
TTITLE7=Brian Collins - Never Really Left
TTITLE8=Katie Armiger - One Night Between Friends
TTITLE9=Jon Pardi - When I've Been Drinking
TTITLE10=Olivia Lane - Steal Me Away
TTITLE11=Montgomery Gentry - Headlights
TTITLE12=Kelsea Ballerini - Love Me Like You Mean It
TTITLE13=Josh Turner - Lay Low
TTITLE14=Will Hoge - Middle of America (CL)
TTITLE15=Brad Paisley - Perfect Storm
TTITLE16=Trisha Yearwood - Prizefighter
TTITLE17=Easton Corbin - Baby Be My Love Song
EXTD=Submitted by Larry@LosSenderosStudio.com
EXTT0=
EXTT1=
EXTT2=
EXTT3=
EXTT4=
EXTT5=
EXTT6=
EXTT7=
EXTT8=
EXTT9=
EXTT10=
EXTT11=
EXTT12=
EXTT13=
EXTT14=
EXTT15=
EXTT16=
EXTT17=
PLAYORDER=
